<mxfile host="app.diagrams.net" modified="2024-04-08T13:53:45.212Z" agent="Mozilla/5.0 (Macintosh; Intel Mac OS X 10_15_7) AppleWebKit/605.1.15 (KHTML, like Gecko) Version/17.4.1 Safari/605.1.15" version="24.2.2" etag="_N2vLttI8FdKuZi1-wAc" type="github">
  <diagram name="Страница — 1" id="mZCj8S00gGUL-Zp-xy0n">
    <mxGraphModel>
      <root>
        <mxCell id="0" />
        <mxCell id="1" parent="0" />
      </root>
    </mxGraphModel>
  </diagram>
</mxfile>
